<?xml version="1.0" encoding="UTF-8"?>
<svg version="1.1" xmlns="http://www.w3.org/2000/svg" width="781" height="312">
<path d="M0 0 C257.73 0 515.46 0 781 0 C781 102.96 781 205.92 781 312 C523.27 312 265.54 312 0 312 C0 209.04 0 106.08 0 0 Z " fill="#FDFDFD" transform="translate(0,0)"/>
<path d="M0 0 C0.56203125 0.42410156 1.1240625 0.84820312 1.703125 1.28515625 C-3.81221197 13.03078128 -9.43629098 24.70770826 -15.296875 36.28515625 C-18.22006445 35.15279446 -20.90080912 33.96082126 -23.671875 32.47265625 C-35.79416778 26.31897327 -51.45863677 21.40331256 -65 25.00390625 C-69.59776481 26.89173021 -72.63327035 28.95679869 -75.296875 33.28515625 C-76.98193972 38.34035041 -76.9695109 41.86227262 -74.671875 46.72265625 C-67.7841178 55.34197252 -54.43279744 59.74167881 -44.6171875 64.27734375 C-23.94109581 73.84389364 -3.87455965 84.45871952 5.703125 106.28515625 C10.12365701 119.54675227 7.16189091 137.70882573 1.078125 149.91015625 C-4.5521887 159.52051929 -11.43751865 166.19547307 -21.296875 171.28515625 C-22.50150391 171.96191406 -22.50150391 171.96191406 -23.73046875 172.65234375 C-42.92691356 183.0337811 -72.94023677 183.83847211 -93.90966797 178.04882812 C-95.71715745 177.4981342 -97.50774723 176.89285998 -99.296875 176.28515625 C-100.39902344 175.93453125 -101.50117187 175.58390625 -102.63671875 175.22265625 C-114.73216992 171.0002442 -126.36170892 164.35747869 -136.296875 156.28515625 C-131.91695406 148.06944882 -127.2381498 140.06411079 -122.421875 132.09765625 C-121.72635288 130.94348567 -121.0310393 129.78918939 -120.3359375 128.63476562 C-118.65828407 125.85032694 -116.97856774 123.06715652 -115.296875 120.28515625 C-111.02255317 121.91258353 -107.39664205 124.06310461 -103.609375 126.59765625 C-91.75734567 134.35427678 -80.76785552 139.88336764 -66.359375 139.78515625 C-65.3895166 139.77943604 -64.4196582 139.77371582 -63.42041016 139.76782227 C-56.5578717 139.59582447 -50.60759171 139.05273148 -45.296875 134.28515625 C-41.52124273 130.23840145 -40.85362399 125.84621332 -40.86328125 120.49609375 C-42.29053147 113.21840346 -48.6481405 109.33643522 -54.296875 105.28515625 C-59.62048154 101.85639272 -65.1839202 99.45041164 -71.08203125 97.1875 C-73.6667517 96.13446574 -75.92952632 94.75675138 -78.296875 93.28515625 C-79.89015625 92.62386719 -79.89015625 92.62386719 -81.515625 91.94921875 C-97.95466752 84.98627322 -109.80910702 73.025322 -117.390625 56.96875 C-121.4580667 46.14106955 -120.80062894 31.51747576 -116.54296875 20.91015625 C-116.13175781 20.04390625 -115.72054687 19.17765625 -115.296875 18.28515625 C-114.69552734 17.01671875 -114.69552734 17.01671875 -114.08203125 15.72265625 C-105.90899096 0.56107427 -91.23966705 -9.18740009 -75.296875 -14.71484375 C-51.13942378 -20.41062713 -20.29009131 -14.15949624 0 0 Z " fill="#020202" transform="translate(138.296875,55.71484375)"/>
<path d="M0 0 C1.03879303 -0.00110275 1.03879303 -0.00110275 2.09857178 -0.00222778 C12.84044988 0.02778615 22.14307306 0.81889248 32 5.4375 C33.70736328 6.21673828 33.70736328 6.21673828 35.44921875 7.01171875 C52.10612467 15.31115271 63.71720119 27.95663659 70.1015625 45.45703125 C74.11016334 60.23204265 72.3345255 78.07651724 65 91.4375 C62.59551842 95.37210623 59.99949009 98.93809489 57 102.4375 C56.44570313 103.09105469 55.89140625 103.74460937 55.3203125 104.41796875 C43.46892577 117.26169647 24.20680238 124.48116727 6.99682617 125.56347656 C-3.7628166 125.96053917 -13.52638255 125.06515667 -24 122.4375 C-24.87785156 122.25574219 -25.75570312 122.07398438 -26.66015625 121.88671875 C-40.45257563 118.58999412 -53.68799661 107.63795259 -61.3984375 96.0546875 C-68.25725045 84.84638341 -70.37523702 75.88772509 -70.4375 62.8125 C-70.47037109 61.61753906 -70.50324219 60.42257813 -70.53710938 59.19140625 C-70.61166129 46.68023988 -66.59719006 36.30250798 -59 26.4375 C-58.52304687 25.78523438 -58.04609375 25.13296875 -57.5546875 24.4609375 C-50.10515783 15.06479707 -39.29821458 8.15641142 -28 4.4375 C-27.24847656 4.1178125 -26.49695313 3.798125 -25.72265625 3.46875 C-17.17729313 0.23205579 -9.07334919 -0.00416492 0 0 Z " fill="#020202" transform="translate(329,111.5625)"/>
<path d="M0 0 C1.08667969 -0.01160156 1.08667969 -0.01160156 2.1953125 -0.0234375 C6.65841585 -0.00726684 10.17127415 0.60630883 14.375 2.25 C15.39078125 2.59417969 16.4065625 2.93835938 17.453125 3.29296875 C30.33416046 7.94092859 40.25152183 14.29477355 46.1875 26.875 C48.96954129 33.15935217 49.52053424 38.69561662 49.48852539 45.52856445 C49.48867142 46.34859451 49.48881744 47.16862457 49.4889679 48.01350403 C49.4882734 50.71345704 49.4805027 53.41334035 49.47265625 56.11328125 C49.47079043 57.98943545 49.4693673 59.86559013 49.46836853 61.741745 C49.4645563 66.672021 49.45473707 71.6022674 49.44366455 76.53253174 C49.43162084 82.45219562 49.42704203 88.37186942 49.42121124 94.29154205 C49.41152463 103.27771527 49.392359 112.26382357 49.375 121.25 C35.845 121.25 22.315 121.25 8.375 121.25 C8.36082031 116.16851562 8.34664062 111.08703125 8.33203125 105.8515625 C8.31195384 102.61581727 8.29041745 99.38021151 8.26367188 96.14453125 C8.22143713 91.01833709 8.18435722 85.89249682 8.17944336 80.76611328 C8.17513779 76.62901994 8.14649034 72.49272149 8.10156822 68.35587692 C8.08866483 66.78443421 8.08425995 65.21289601 8.08884621 63.64140701 C8.11058863 53.92152753 7.74528967 45.17457822 0.8618927 37.58071899 C-3.74766264 33.43579172 -7.42282163 32.97467381 -13.484375 33.109375 C-20.41160208 33.56444831 -24.54041459 35.49562402 -29.765625 40.10546875 C-34.37942067 45.42684233 -36.12144195 49.61886754 -36.17089844 56.65405273 C-36.18123611 57.357332 -36.19157379 58.06061127 -36.20222473 58.78520203 C-36.23146942 61.08490474 -36.2331479 63.38372037 -36.234375 65.68359375 C-36.24936917 67.28786377 -36.26609891 68.89211842 -36.28448486 70.49635315 C-36.32803224 74.69994852 -36.34812926 78.9033357 -36.36322021 83.1071167 C-36.38629158 88.16094126 -36.43870664 93.21453771 -36.48616028 98.26818085 C-36.55482992 105.92884654 -36.5863951 113.58885824 -36.625 121.25 C-50.155 121.25 -63.685 121.25 -77.625 121.25 C-77.625 82.31 -77.625 43.37 -77.625 3.25 C-64.095 3.25 -50.565 3.25 -36.625 3.25 C-36.625 7.21 -36.625 11.17 -36.625 15.25 C-35.8515625 14.64671875 -35.078125 14.0434375 -34.28125 13.421875 C-23.37598249 5.05397171 -14.03379003 -0.15144378 0 0 Z " fill="#030303" transform="translate(723.625,111.75)"/>
<path d="M0 0 C13.53 0 27.06 0 41 0 C41 14.52 41 29.04 41 44 C49.25 44 57.5 44 66 44 C66 54.23 66 64.46 66 75 C57.75 75 49.5 75 41 75 C41.07414612 81.13878736 41.15711031 87.27615699 41.26245117 93.41430664 C41.29561661 95.50049387 41.32367443 97.58676902 41.34643555 99.6730957 C41.38013569 102.67957879 41.43245968 105.68526225 41.48828125 108.69140625 C41.49467117 109.61772354 41.5010611 110.54404083 41.50764465 111.49842834 C41.6507669 117.8640732 42.29032017 123.29032017 47 128 C49.05118698 128.05980758 49.05118698 128.05980758 51.3125 127.6875 C52.11171875 127.57921875 52.9109375 127.4709375 53.734375 127.359375 C56.17283307 126.9725851 58.59134546 126.54388973 61 126 C63.79553675 132.0899693 65.75639007 138.33984388 67.6875 144.75 C68.00783203 145.79027344 68.32816406 146.83054688 68.65820312 147.90234375 C68.96048828 148.89878906 69.26277344 149.89523438 69.57421875 150.921875 C69.84838623 151.82518555 70.12255371 152.72849609 70.4050293 153.65917969 C71 156 71 156 71 159 C68.79388434 159.81898266 66.5854166 160.63027543 64.375 161.4375 C63.14523437 161.88996094 61.91546875 162.34242188 60.6484375 162.80859375 C53.80798423 165.04236061 47.32244724 165.21161427 40.1875 165.25 C38.76727539 165.2809375 38.76727539 165.2809375 37.31835938 165.3125 C27.76123238 165.36512011 20.46873131 163.22238211 13.0703125 157.07421875 C2.46615824 146.45005665 -0.11436039 131.69134502 -0.11329651 117.31787109 C-0.10813522 116.24359863 -0.10297394 115.16932617 -0.09765625 114.0625 C-0.0962413 112.94182129 -0.09482635 111.82114258 -0.09336853 110.66650391 C-0.08780139 107.11097467 -0.07525498 103.55550998 -0.0625 100 C-0.05748075 97.579428 -0.05291859 95.158855 -0.04882812 92.73828125 C-0.03784272 86.82549622 -0.02060084 80.91275903 0 75 C-5.61 75 -11.22 75 -17 75 C-17 64.77 -17 54.54 -17 44 C-11.39 44 -5.78 44 0 44 C0 29.48 0 14.96 0 0 Z " fill="#030303" transform="translate(505,71)"/>
<path d="M0 0 C13.53 0 27.06 0 41 0 C41 14.52 41 29.04 41 44 C49.25 44 57.5 44 66 44 C66 54.23 66 64.46 66 75 C57.75 75 49.5 75 41 75 C41.07414612 81.13878736 41.15711031 87.27615699 41.26245117 93.41430664 C41.29561661 95.50049387 41.32367443 97.58676902 41.34643555 99.6730957 C41.38013569 102.67957879 41.43245968 105.68526225 41.48828125 108.69140625 C41.49467117 109.61772354 41.5010611 110.54404083 41.50764465 111.49842834 C41.6507669 117.8640732 42.29032017 123.29032017 47 128 C49.05118698 128.05980758 49.05118698 128.05980758 51.3125 127.6875 C52.11171875 127.57921875 52.9109375 127.4709375 53.734375 127.359375 C56.17283307 126.9725851 58.59134546 126.54388973 61 126 C63.2301355 131.82648013 65.27847524 137.68581185 67.1875 143.625 C67.46013672 144.44484375 67.73277344 145.2646875 68.01367188 146.109375 C69.43652117 150.54552667 70.34377817 154.27877985 70 159 C67.96123051 159.81974263 65.91883925 160.6304807 63.875 161.4375 C62.16957031 162.11619141 62.16957031 162.11619141 60.4296875 162.80859375 C53.71086091 165.14258249 47.22954652 165.21211407 40.1875 165.25 C38.76727539 165.2809375 38.76727539 165.2809375 37.31835938 165.3125 C26.60561369 165.37148277 18.7359356 162.51740634 11 155 C6.44278182 149.55913821 3.79566699 143.82134474 2 137 C1.49122314 135.33432983 1.49122314 135.33432983 0.97216797 133.63500977 C-0.44194014 127.93450721 -0.24819582 122.24601278 -0.1953125 116.40625 C-0.1924826 115.21898315 -0.18965271 114.03171631 -0.18673706 112.80847168 C-0.17559598 109.03887599 -0.15050226 105.26952315 -0.125 101.5 C-0.11496237 98.93489928 -0.10583789 96.36979481 -0.09765625 93.8046875 C-0.07567647 87.53636562 -0.04118829 81.2682239 0 75 C-5.61 75 -11.22 75 -17 75 C-17 64.77 -17 54.54 -17 44 C-11.39 44 -5.78 44 0 44 C0 29.48 0 14.96 0 0 Z " fill="#020202" transform="translate(420,71)"/>
<path d="M0 0 C1.31323242 1.70629883 1.31323242 1.70629883 2 4 C1.03369141 6.84082031 1.03369141 6.84082031 -0.6484375 10.078125 C-1.24140625 11.23828125 -1.834375 12.3984375 -2.4453125 13.59375 C-3.08819993 14.8126803 -3.7314336 16.03142804 -4.375 17.25 C-5.01187562 18.48362289 -5.64731046 19.71799074 -6.28125 20.953125 C-7.84012163 23.97639119 -9.41340189 26.9912181 -11 30 C-12.60433809 29.52140759 -14.20846416 29.04210442 -15.8125 28.5625 C-16.70582031 28.29566406 -17.59914063 28.02882812 -18.51953125 27.75390625 C-20.35473055 27.19612127 -22.18033726 26.60655425 -24 26 C-33.34439662 25.19149979 -41.96380841 26.15391819 -49.375 32.25 C-54.27319766 36.93049998 -57.7561333 42.27790151 -58.11352539 49.19824219 C-58.10828857 49.97329102 -58.10305176 50.74833984 -58.09765625 51.546875 C-58.09443359 52.39121094 -58.09121094 53.23554688 -58.08789062 54.10546875 C-58.07951172 54.97816406 -58.07113281 55.85085937 -58.0625 56.75 C-58.05798828 57.63816406 -58.05347656 58.52632813 -58.04882812 59.44140625 C-58.037074 61.62767329 -58.02064249 63.81380179 -58 66 C-57.34 66 -56.68 66 -56 66 C-54.921875 67.57421875 -54.921875 67.57421875 -53.75 69.6875 C-50.4273091 75.18645629 -46.31294699 79.11846632 -40.171875 81.49609375 C-31.46739693 83.51565791 -23.23915783 81.92846678 -15 79 C-13.66874494 78.65846106 -12.33565234 78.32391621 -11 78 C-9.39128326 81.01843094 -7.78886951 84.04016561 -6.1875 87.0625 C-5.73568359 87.91005859 -5.28386719 88.75761719 -4.81835938 89.63085938 C2 102.52104243 2 102.52104243 2 107 C-10.1184893 113.52534039 -21.57541434 116.1787004 -35.25 116.1875 C-36.72919922 116.20586914 -36.72919922 116.20586914 -38.23828125 116.22460938 C-56.99456381 116.26167713 -72.01700156 109.0485784 -85.64453125 96.4140625 C-97.43854174 84.32666866 -103.57439769 68.01262682 -103.48974609 51.21533203 C-102.83363408 34.27315127 -94.21439493 19.42220944 -82 8 C-59.48315471 -10.16173529 -25.89977665 -15.11177051 0 0 Z " fill="#030303" transform="translate(254,120)"/>
<path d="M0 0 C12.87 0 25.74 0 39 0 C39 38.94 39 77.88 39 118 C26.13 118 13.26 118 0 118 C0 79.06 0 40.12 0 0 Z " fill="#000000" transform="translate(583,119)"/>
<path d="M0 0 C8.53768891 -0.3484771 15.36334355 1.02817484 22.125 6.4375 C29.24995828 15.39459041 31.54415174 22.60040741 30.3125 34.1875 C27.7640004 42.32200979 23.75871855 48.02637787 16.3125 52.1875 C14.6728125 53.115625 14.6728125 53.115625 13 54.0625 C5.82655072 56.25100995 -2.70707347 56.19950409 -9.6875 53.1875 C-16.35650728 49.13714879 -21.54537107 44.22885686 -24.1484375 36.69140625 C-25.9396149 28.37151703 -25.61139543 19.76467739 -21.6875 12.1875 C-17.73104826 6.4223846 -12.66899693 2.36385137 -5.9375 0.375 C-3.95768197 0.26077973 -1.97830126 0.13802102 0 0 Z " fill="#FBFBFB" transform="translate(326.6875,146.8125)"/>
<path d="M0 0 C4.95 0 9.9 0 15 0 C15 23.76 15 47.52 15 72 C10.05 72 5.1 72 0 72 C0 70.68 0 69.36 0 68 C-0.52207031 68.3609375 -1.04414062 68.721875 -1.58203125 69.09375 C-7.67695326 72.93643288 -12.83052855 74.32180521 -20 73 C-26.51575935 70.33049993 -30.30354598 65.96879454 -33.75 59.9375 C-36.15955444 53.88713527 -36.13967056 46.13973969 -33.8125 40.0625 C-30.99692872 35.30515542 -26.68323616 30.14750059 -21.20703125 28.44140625 C-18.69036776 27.93807355 -16.31649128 27.75716191 -13.75 27.6875 C-12.85796875 27.65011719 -11.9659375 27.61273438 -11.046875 27.57421875 C-8 28 -8 28 0 32 C0 21.44 0 10.88 0 0 Z " fill="#060606" transform="translate(672,35)"/>
<path d="M0 0 C5.74898844 4.05664552 10.46496968 9.87180736 11.70703125 16.91015625 C12.48012258 27.13214161 11.01956257 33.66879592 4.70703125 41.91015625 C-1.32456738 48.07712742 -6.90865619 51.01338431 -15.54296875 51.47265625 C-23.43056859 51.27297018 -29.31625095 48.46434778 -35.16796875 43.234375 C-36.72687169 41.53906805 -38.01725362 39.82577994 -39.29296875 37.91015625 C-39.70417969 37.33910156 -40.11539063 36.76804688 -40.5390625 36.1796875 C-44.36752502 29.96671546 -44.23008091 22.97081169 -43.29296875 15.91015625 C-40.45371449 7.78802726 -34.59522236 2.23189818 -27.29296875 -2.08984375 C-18.14281515 -6.44705975 -8.56203997 -4.74671416 0 0 Z " fill="#080808" transform="translate(618.29296875,57.08984375)"/>
<path d="M0 0 C1.546875 0.8353125 1.546875 0.8353125 3.125 1.6875 C7.85353572 5.49088743 10.5708109 9.01060458 11.44921875 15.12890625 C11.71250289 22.96387902 10.80943138 28.86997291 5.421875 34.7109375 C-1.9121898 41.48338472 -8.4094968 42.63999217 -18.265625 42.40625 C-24.63570842 41.71327021 -29.39865817 39.69366502 -33.87109375 35.0625 C-38.54785304 29.14084795 -40.49984199 24.12977396 -40.30859375 16.55859375 C-39.60622147 10.73512738 -36.96253533 6.60628239 -32.6875 2.6875 C-23.45925307 -4.41263967 -10.31970784 -6.14791106 0 0 Z " fill="#060606" transform="translate(729,66)"/>
<path d="M0 0 C4.95 0 9.9 0 15 0 C15 5.28 15 10.56 15 16 C17.97 16 20.94 16 24 16 C24 19.63 24 23.26 24 27 C21.03 27 18.06 27 15 27 C15.33 33.27 15.66 39.54 16 46 C18.31 46 20.62 46 23 46 C24.59138085 50.17737474 25.21278058 53.53160785 25 58 C20.21422603 60.82642181 15.40473387 60.5066938 10 60 C5.35885256 58.22253928 3.46728262 55.22962735 1 51 C0.01956036 48.05868109 -0.11621202 46.17498335 -0.09765625 43.11328125 C-0.09443359 42.17548828 -0.09121094 41.23769531 -0.08789062 40.27148438 C-0.07951172 39.29501953 -0.07113281 38.31855469 -0.0625 37.3125 C-0.05798828 36.32443359 -0.05347656 35.33636719 -0.04882812 34.31835938 C-0.03704303 31.87884526 -0.02059011 29.43945311 0 27 C-1.98 27 -3.96 27 -6 27 C-6 23.37 -6 19.74 -6 16 C-4.02 16 -2.04 16 0 16 C0 10.72 0 5.44 0 0 Z " fill="#070707" transform="translate(745,48)"/>
<path d="M0 0 C3.0152127 1.60811344 4.60874301 2.78300877 5.671875 6.08984375 C6.3664597 10.26429777 6.42176966 12.30189849 4.1875 16 C0.64213511 19.24147647 -2.04981886 19.47034537 -6.734375 19.40234375 C-9 19 -9 19 -12.0625 16.5 C-14.71565523 12.58960049 -14.73301898 9.61801955 -14 5 C-9.80299836 -0.3313264 -6.55751868 -1.70495486 0 0 Z " fill="#F3F3F3" transform="translate(719,76)"/>
<path d="M0 0 C3.0625 1.4375 3.0625 1.4375 5 4 C5.88535543 7.85605214 5.73995266 11.26164231 4.18359375 14.91796875 C2.50200849 17.38468441 0.7415481 18.81494821 -2.16015625 19.5390625 C-6.3698577 19.80612202 -8.47592335 19.3603027 -12 16.9375 C-14.39441358 13.42070506 -15 11.24773336 -15 7 C-11.85993829 -0.06513884 -7.11170306 -0.95902125 0 0 Z " fill="#F4F4F4" transform="translate(667,76)"/>
<path d="M0 0 C5.77027215 4.0031263 10.19750179 8.54206933 13 15 C13.25 17.9375 13.25 17.9375 13 20 C11.12109375 19.734375 11.12109375 19.734375 9 19 C7.91015625 17.328125 7.91015625 17.328125 7.0625 15.25 C4.20216082 9.02848403 0.30401534 5.63889014 -6 3 C-8.78910655 2.5324044 -11.55116361 2.40186191 -14.375 2.3125 C-15.11105469 2.27833984 -15.84710937 2.24417969 -16.60546875 2.20898438 C-18.40313853 2.12727211 -20.20154046 2.06194219 -22 2 C-21.67 0.68 -21.34 -0.64 -21 -2 C-13.89486995 -4.27364162 -6.65579007 -3.04380644 0 0 Z " fill="#E9E9E9" transform="translate(609,68)"/>
<path d="M0 0 C8.14944137 -0.53930127 14.23371592 -0.12444034 20.56640625 5.35546875 C23.94581201 8.94668912 24.71057411 12.17623512 25 17 C24.01 17 23.02 17 22 17 C21.79246094 16.46890625 21.58492187 15.9378125 21.37109375 15.390625 C19.45703022 11.00189357 17.69397887 7.90064705 13.21484375 5.67578125 C8.60491123 4.26922336 3.79073239 4.15733111 -1 4 C-0.67 2.68 -0.34 1.36 0 0 Z " fill="#E1E1E1" transform="translate(590,72)"/>
<path d="M0 0 C2.41402116 1.76158301 3.91243753 3.04293755 5.3125 5.6875 C5 8.4375 5 8.4375 4.3125 10.6875 C0.55641399 9.43547133 0.16565035 8.05686427 -1.6875 4.6875 C-3.27022601 3.10477399 -5.06784003 3.34014253 -7.25 3.125 C-8.07628906 3.04121094 -8.90257812 2.95742187 -9.75390625 2.87109375 C-10.39199219 2.81050781 -11.03007813 2.74992187 -11.6875 2.6875 C-11.6875 1.3675 -11.6875 0.0475 -11.6875 -1.3125 C-7.29036713 -2.77821096 -4.12765128 -2.01582969 0 0 Z " fill="#DCDCDC" transform="translate(603.6875,80.3125)"/>
<path d="M0 0 C7.25133529 -0.47205799 12.08604089 -0.43546933 18 4 C20.71694283 6.80750759 21.46609623 9.15589283 22 13 C21.01 13.33 20.02 13.66 19 14 C18.608125 12.906875 18.21625 11.81375 17.8125 10.6875 C16.24061073 7.0515879 14.73811355 5.56479172 11 4 C7.8978884 3.31753545 5.1741941 3 2 3 C2 2.34 2 1.68 2 1 C1.34 0.67 0.68 0.34 0 0 Z " fill="#1F1F1F" transform="translate(590,76)"/>
<path d="M0 0 C3.80628063 2.44983073 6.77265434 5.35417996 8.5625 9.5625 C8.375 13.5 8.375 13.5 7.5625 16.5625 C6.40321088 14.24392176 5.28987401 11.93935487 4.25 9.5625 C1.47076811 4.62164331 -2.15375944 2.37406819 -7.4375 0.5625 C-4.44079911 -1.83486071 -3.61501669 -1.51173425 0 0 Z " fill="#323232" transform="translate(608.4375,72.4375)"/>
<path d="M0 0 C3.49853326 0.36191723 6.35824562 1.10016902 9.625 2.375 C9.295 3.035 8.965 3.695 8.625 4.375 C3.345 4.375 -1.935 4.375 -7.375 4.375 C-3.375 0.375 -3.375 0.375 0 0 Z " fill="#EBEBEB" transform="translate(595.375,64.625)"/>
<path d="M0 0 C3.38555647 1.40091992 5.18190974 2.79669811 7 6 C7.6875 9.75 7.6875 9.75 8 13 C7.01 13 6.02 13 5 13 C3 9 1 5 -1 1 C-0.67 0.67 -0.34 0.34 0 0 Z " fill="#EAEAEA" transform="translate(607,76)"/>
<path d="M0 0 C0.66 0.33 1.32 0.66 2 1 C1.67 1.33 1.34 1.66 1 2 C3.43757413 2.02698422 5.87484915 2.04683099 8.3125 2.0625 C9.00279297 2.07087891 9.69308594 2.07925781 10.40429688 2.08789062 C13.5483025 2.10307906 15.99420019 2.00193327 19 1 C19.99 1.99 20.98 2.98 22 4 C21.01 5.485 21.01 5.485 20 7 C19.34644531 6.68289062 18.69289063 6.36578125 18.01953125 6.0390625 C14.20704555 4.7271334 10.69110429 4.54673638 6.6875 4.375 C5.94693359 4.33632812 5.20636719 4.29765625 4.44335938 4.2578125 C2.62928691 4.16418295 0.81467884 4.08103149 -1 4 C-0.67 2.68 -0.34 1.36 0 0 Z " fill="#C9C9C9" transform="translate(588,66)"/>
<path d="M0 0 C1.65 0.33 3.3 0.66 5 1 C4.67 2.65 4.34 4.3 4 6 C2.35 5.67 0.7 5.34 -1 5 C-0.67 3.35 -0.34 1.7 0 0 Z " fill="#EBEBEB" transform="translate(596,86)"/>
<path d="M0 0 C-0.33 0.99 -0.66 1.98 -1 3 C-3.97 3 -6.94 3 -10 3 C-9.67 2.01 -9.34 1.02 -9 0 C-5.52176885 -1.15941038 -3.54104422 -0.70820884 0 0 Z " fill="#E7E7E7" transform="translate(601,79)"/>
<path d="M0 0 C0.33 2.31 0.66 4.62 1 7 C-0.32 6.67 -1.64 6.34 -3 6 C-3.33 4.35 -3.66 2.7 -4 1 C-2 0 -2 0 0 0 Z " fill="#D0D0D0" transform="translate(621,81)"/>
<path d="M0 0 C1.32 0.66 2.64 1.32 4 2 C4 2.99 4 3.98 4 5 C2.68 4.67 1.36 4.34 0 4 C0 2.68 0 1.36 0 0 Z " fill="#F4F4F4" transform="translate(607,76)"/>
<path d="M0 0 C0.99 0.33 1.98 0.66 3 1 C1.79296875 2.51953125 1.79296875 2.51953125 0 4 C-2.26171875 4.07421875 -2.26171875 4.07421875 -4.6875 3.6875 C-5.89986328 3.50767578 -5.89986328 3.50767578 -7.13671875 3.32421875 C-7.75160156 3.21722656 -8.36648438 3.11023438 -9 3 C-9 2.67 -9 2.34 -9 2 C-6.94921875 1.77213542 -4.8984375 1.54427083 -2.84765625 1.31640625 C-0.98859771 1.18113386 -0.98859771 1.18113386 0 0 Z " fill="#B7B7B7" transform="translate(601,80)"/>
</svg>
